<svg width="22" height="24" viewBox="0 0 22 24" fill="none" xmlns="http://www.w3.org/2000/svg">
<path d="M5.84961 0.000244141C6.22461 0.000244141 6.59961 0.375244 6.59961 0.750244V3.00024H15.5996V0.750244C15.5996 0.375244 15.9277 0.000244141 16.3496 0.000244141C16.7246 0.000244141 17.0996 0.375244 17.0996 0.750244V3.00024H18.5996C20.2402 3.00024 21.5996 4.35962 21.5996 6.00024V7.50024V9.00024V21.0002C21.5996 22.6877 20.2402 24.0002 18.5996 24.0002H3.59961C1.91211 24.0002 0.599609 22.6877 0.599609 21.0002V9.00024V7.50024V6.00024C0.599609 4.35962 1.91211 3.00024 3.59961 3.00024H5.09961V0.750244C5.09961 0.375244 5.42773 0.000244141 5.84961 0.000244141ZM20.0996 9.00024H2.09961V21.0002C2.09961 21.844 2.75586 22.5002 3.59961 22.5002H18.5996C19.3965 22.5002 20.0996 21.844 20.0996 21.0002V9.00024ZM18.5996 4.50024H3.59961C2.75586 4.50024 2.09961 5.20337 2.09961 6.00024V7.50024H20.0996V6.00024C20.0996 5.20337 19.3965 4.50024 18.5996 4.50024Z" fill="#009CA6"/>
</svg>
