<svg width="208" height="261" viewBox="0 0 208 261" fill="none" xmlns="http://www.w3.org/2000/svg">
<rect y="111.417" width="40" height="33" fill="#33B0B8"/>
<rect y="144.417" width="40" height="17" fill="#66C4CA"/>
<rect y="161.417" width="40" height="33" fill="#99D7DB"/>
<rect y="194.417" width="40" height="33" fill="#CCEBED"/>
<rect y="227.417" width="40" height="33" fill="white"/>
<rect x="56" y="49.417" width="40" height="44.5" fill="#33B0B8"/>
<rect x="56" y="93.917" width="40" height="11" fill="#66C4CA"/>
<rect x="56" y="104.917" width="40" height="44.5" fill="#99D7DB"/>
<rect x="56" y="149.417" width="40" height="21" fill="#CCEBED"/>
<rect x="56" y="170.417" width="40" height="90" fill="white"/>
<rect x="112" y="71.417" width="40" height="7" fill="#33B0B8"/>
<rect x="112" y="78.417" width="40" height="17" fill="#66C4CA"/>
<rect x="112" y="95.417" width="40" height="25" fill="#99D7DB"/>
<rect x="112" y="120.417" width="40" height="37" fill="#CCEBED"/>
<rect x="112" y="157.417" width="40" height="103" fill="white"/>
<rect x="168" y="0.416992" width="40" height="38" fill="#33B0B8"/>
<rect x="168" y="38.417" width="40" height="26" fill="#66C4CA"/>
<rect x="168" y="64.417" width="40" height="38" fill="#99D7DB"/>
<rect x="168" y="102.417" width="40" height="46" fill="#CCEBED"/>
<rect x="168" y="148.417" width="40" height="112" fill="white"/>
</svg>
