<svg width="316" height="317" viewBox="0 0 316 317" fill="none" xmlns="http://www.w3.org/2000/svg">
<g clip-path="url(#clip0_180_10063)">
<rect x="54" y="167.417" width="40" height="33" fill="#33B0B8"/>
<rect x="54" y="200.417" width="40" height="17" fill="#66C4CA"/>
<rect x="54" y="217.417" width="40" height="33" fill="#99D7DB"/>
<rect x="54" y="250.417" width="40" height="33" fill="#CCEBED"/>
<rect x="54" y="283.417" width="40" height="33" fill="white"/>
<rect x="110" y="105.417" width="40" height="44.5" fill="#33B0B8"/>
<rect x="110" y="149.917" width="40" height="11" fill="#66C4CA"/>
<rect x="110" y="160.917" width="40" height="44.5" fill="#99D7DB"/>
<rect x="110" y="205.417" width="40" height="21" fill="#CCEBED"/>
<rect x="110" y="226.417" width="40" height="90" fill="white"/>
<rect x="166" y="127.417" width="40" height="7" fill="#33B0B8"/>
<rect x="166" y="134.417" width="40" height="17" fill="#66C4CA"/>
<rect x="166" y="151.417" width="40" height="25" fill="#99D7DB"/>
<rect x="166" y="176.417" width="40" height="37" fill="#CCEBED"/>
<rect x="166" y="213.417" width="40" height="103" fill="white"/>
<rect x="222" y="56.417" width="40" height="38" fill="#33B0B8"/>
<rect x="222" y="94.417" width="40" height="26" fill="#66C4CA"/>
<rect x="222" y="120.417" width="40" height="38" fill="#99D7DB"/>
<rect x="222" y="158.417" width="40" height="46" fill="#CCEBED"/>
<rect x="222" y="204.417" width="40" height="112" fill="white"/>
</g>
<defs>
<clipPath id="clip0_180_10063">
<rect width="316" height="316" fill="white" transform="translate(0 0.417969)"/>
</clipPath>
</defs>
</svg>
