<svg width="64" height="64" viewBox="0 0 64 64" fill="none" xmlns="http://www.w3.org/2000/svg">
<path d="M33.8449 31.9997C33.6063 32.2486 33.3199 32.4467 33.0029 32.582C32.6858 32.7173 32.3446 32.787 31.9999 32.787C31.6552 32.787 31.314 32.7173 30.9969 32.582C30.6799 32.4467 30.3935 32.2486 30.155 31.9997L16.7548 18.0118C15.4163 16.6734 14.5328 14.9477 14.2297 13.0793C13.9265 11.2108 14.219 9.29436 15.0657 7.60139C15.7046 6.32284 16.6383 5.21448 17.7898 4.3677C18.9413 3.52091 20.2775 2.95996 21.6884 2.7311C23.0992 2.50224 24.5443 2.61202 25.9044 3.05139C27.2645 3.49076 28.5007 4.24714 29.511 5.25815L31.9999 7.74705L34.4888 5.25815C35.4991 4.24714 36.7353 3.49076 38.0954 3.05139C39.4555 2.61202 40.9006 2.50224 42.3114 2.7311C43.7223 2.95996 45.0586 3.52091 46.21 4.3677C47.3615 5.21448 48.2952 6.32284 48.9341 7.60139C49.7808 9.29436 50.0733 11.2108 49.7701 13.0793C49.467 14.9477 48.5835 16.6734 47.245 18.0118L33.8449 31.9997Z" stroke-width="2.672" stroke-linecap="round" stroke-linejoin="round" stroke="#009CA6"/>
<path d="M56.3626 61.3865C59.6729 53.3736 61.3797 44.7892 61.3864 36.1194V25.1442C61.3822 24.294 61.0564 23.4769 60.4744 22.8571C59.8924 22.2373 59.0973 21.8608 58.2491 21.8031C57.4008 21.7455 56.5622 22.0111 55.9017 22.5466C55.2413 23.082 54.8079 23.8476 54.6889 24.6894L51.5228 47.9097C51.437 48.4316 51.1739 48.9079 50.7779 49.2585C50.3819 49.609 49.8772 49.8124 49.3487 49.8343C48.8203 49.8562 48.3005 49.6953 47.8768 49.3787C47.4532 49.0621 47.1516 48.6092 47.0229 48.0962L45.3568 40.6091C45.2039 39.9285 44.8055 39.3281 44.2378 38.9227C43.6701 38.5172 42.9729 38.3352 42.2795 38.4114C41.5861 38.4876 40.9451 38.8167 40.479 39.3357C40.0129 39.8548 39.7544 40.5274 39.7529 41.225C39.7537 46.416 40.2837 51.5935 41.3347 56.6771L42.3083 61.3865" stroke-width="2.672" stroke-linecap="round" stroke-linejoin="round" stroke="#009CA6"/>
<path d="M7.63756 61.3865C4.32729 53.3736 2.62049 44.7892 2.61377 36.1194V25.1442C2.61795 24.294 2.94378 23.4769 3.52578 22.8571C4.10778 22.2373 4.90281 21.8608 5.75108 21.8031C6.59934 21.7455 7.43798 22.0111 8.09843 22.5466C8.75889 23.082 9.19221 23.8476 9.3113 24.6894L12.4774 47.9097C12.5632 48.4316 12.8263 48.9079 13.2223 49.2585C13.6183 49.609 14.123 49.8124 14.6514 49.8343C15.1798 49.8562 15.6997 49.6953 16.1233 49.3787C16.547 49.0621 16.8486 48.6092 16.9773 48.0962L18.6434 40.6091C18.7963 39.9285 19.1947 39.3281 19.7624 38.9227C20.33 38.5172 21.0272 38.3352 21.7207 38.4114C22.4141 38.4876 23.0551 38.8167 23.5212 39.3357C23.9873 39.8548 24.2458 40.5274 24.2472 41.225C24.2465 46.416 23.7165 51.5935 22.6655 56.6771L21.6919 61.3865" stroke-width="2.672" stroke-linecap="round" stroke-linejoin="round" stroke="#009CA6"/>
</svg>