<svg width="560" height="69" viewBox="0 0 560 69" fill="none" xmlns="http://www.w3.org/2000/svg">
<path d="M362.224 67.99H374.793V1.31012H362.224V67.99ZM79.3578 1.4579H67.1232L61.212 19.4482L53.893 1.4579H40.0095L52.3296 32.1728L39.4339 67.9822H51.5907L58.7386 48.1019L66.8743 67.9822H80.6723L67.6988 36.0306L79.3578 1.4579ZM82.0645 12.3858H92.0824V67.99H106.868V12.3858H116.808V1.4579H82.0645V12.3781V12.3858ZM159.968 31.8928C161.142 30.3294 161.951 28.4861 162.387 26.3471C162.822 24.2082 163.048 21.7737 163.048 19.0359C163.048 14.3848 162.13 10.7836 160.295 8.23244C158.459 5.68907 155.9 3.92349 152.618 2.9357C149.335 1.94791 145.447 1.4579 140.959 1.4579H122.642V67.99H137.342V38.1773H141.534L148.845 67.99H164.043L154.928 35.7895C157.121 34.7473 158.801 33.4484 159.976 31.885L159.968 31.8928ZM148.721 25.3982C148.254 26.7905 147.445 27.8638 146.302 28.6027C145.151 29.3416 143.533 29.715 141.456 29.715H137.35V11.3125H142.11C144.902 11.3125 146.815 12.1058 147.858 13.6925C148.9 15.2792 149.421 17.4959 149.421 20.3426C149.421 22.3182 149.188 23.9982 148.721 25.3982ZM181.287 1.4579L168.718 67.99H182.602L184.904 53.9431H194.681L196.897 67.99H210.446L198.041 1.4579H181.287ZM186.21 45.1541L189.742 19.1993L193.273 45.1541H186.21ZM247.119 3.1457C244.187 1.41901 240.205 0.555664 235.172 0.555664C230.14 0.555664 226.243 1.41901 223.342 3.1457C220.441 4.87239 218.356 7.34576 217.096 10.5814C215.836 13.8092 215.206 17.7292 215.206 22.326V47.0519C215.206 51.5942 215.836 55.5142 217.096 58.7965C218.356 62.0788 220.433 64.5988 223.342 66.3566C226.243 68.1066 230.187 68.9855 235.172 68.9855C240.158 68.9855 244.195 68.1066 247.119 66.3566C250.051 64.6066 252.144 62.0865 253.404 58.7965C254.664 55.5142 255.294 51.5942 255.294 47.0519V22.326C255.294 17.7292 254.664 13.8092 253.404 10.5814C252.144 7.35354 250.051 4.87239 247.119 3.1457ZM240.259 50.7386C240.259 51.9986 240.15 53.2275 239.932 54.4331C239.715 55.6387 239.248 56.6265 238.532 57.3887C237.817 58.1587 236.697 58.5398 235.164 58.5398C233.632 58.5398 232.52 58.1587 231.836 57.3887C231.151 56.6187 230.716 55.6387 230.521 54.4331C230.327 53.2275 230.233 51.9986 230.233 50.7386V18.7093C230.233 17.3948 230.342 16.1503 230.56 14.9759C230.778 13.8014 231.244 12.8292 231.96 12.0592C232.668 11.2892 233.741 10.908 235.164 10.908C236.697 10.908 237.817 11.2892 238.532 12.0592C239.24 12.8292 239.707 13.7936 239.932 14.9759C240.15 16.1581 240.259 17.4026 240.259 18.7093V50.7386ZM301.572 31.8928C302.747 30.3294 303.555 28.4861 303.999 26.3471C304.434 24.2082 304.66 21.7737 304.66 19.0359C304.66 14.3848 303.742 10.7836 301.907 8.23244C300.071 5.68907 297.512 3.92349 294.23 2.9357C290.948 1.94791 287.059 1.4579 282.571 1.4579H264.254V67.99H278.954V38.1773H283.146L290.457 67.99H305.656L296.54 35.7895C298.733 34.7473 300.413 33.4484 301.588 31.885L301.572 31.8928ZM290.318 25.3982C289.851 26.7905 289.042 27.8638 287.899 28.6027C286.747 29.3416 285.13 29.715 283.053 29.715H278.946V11.3125H283.706C286.499 11.3125 288.412 12.1058 289.454 13.6925C290.496 15.2792 291.018 17.4959 291.018 20.3426C291.018 22.3182 290.784 23.9982 290.318 25.3982ZM343.915 3.63571C340.687 2.18902 336.168 1.4579 330.366 1.4579H313.527V67.99H330.529C336.277 67.99 340.757 67.2511 343.962 65.7733C347.166 64.2955 349.422 61.9854 350.736 58.8354C352.051 55.6853 352.704 51.6175 352.704 46.6397V22.4893C352.704 17.5581 352.051 13.5525 350.736 10.4569C349.422 7.36132 347.151 5.09017 343.923 3.64349L343.915 3.63571ZM337.592 48.9341C337.592 50.9097 337.467 52.5508 337.218 53.8653C336.969 55.1798 336.355 56.1676 335.367 56.8209C334.379 57.482 332.761 57.8087 330.521 57.8087H328.219V11.7247H330.436C332.629 11.7247 334.216 11.9969 335.196 12.5492C336.184 13.0936 336.822 13.9725 337.125 15.1781C337.428 16.3837 337.576 17.9704 337.576 19.9382V48.9341H337.592ZM410.361 33.4872L396.727 1.4579H386.382V67.99H398.951V33.495L412.586 67.99H422.526V1.4579H410.369V33.4872H410.361ZM441.815 1.4579L429.246 67.99H443.13L445.432 53.9431H455.209L457.425 67.99H470.975L458.569 1.4579H441.815ZM446.746 45.1541L450.278 19.1993L453.809 45.1541H446.746ZM515.036 31.8928C516.211 30.3294 517.02 28.4861 517.463 26.3471C517.899 24.2082 518.116 21.7737 518.116 19.0359C518.116 14.3848 517.198 10.7836 515.363 8.23244C513.527 5.68907 510.968 3.92349 507.686 2.9357C504.404 1.94791 500.515 1.4579 496.027 1.4579H477.71V67.99H492.41V38.1773H496.603L503.914 67.99H519.112L509.996 35.7895C512.19 34.7473 513.87 33.4484 515.044 31.885L515.036 31.8928ZM503.789 25.3982C503.323 26.7905 502.514 27.8638 501.371 28.6027C500.219 29.3416 498.602 29.715 496.525 29.715H492.418V11.3125H497.178C499.97 11.3125 501.884 12.1058 502.926 13.6925C503.968 15.2792 504.489 17.4959 504.489 20.3426C504.489 22.3182 504.256 23.9982 503.789 25.3982ZM546.7 1.4579L541.03 22.4815L534.707 1.4579H520.823L533.47 40.7985V67.9822H547.594V40.7985L560 1.4579H546.692H546.7ZM0 67.99H35.0783V55.4209H0V67.99ZM0 14.027H35.0783V1.4579H0V14.027ZM0 41.0085H35.0783V28.4394H0V41.0085Z" fill="#009CA6"/>
</svg>
