<svg width="28" height="22" viewBox="0 0 28 22" fill="none" xmlns="http://www.w3.org/2000/svg">
<path d="M6.28418 5.37524C4.26855 7.25024 2.90918 9.50024 2.2998 11.0002C2.90918 12.5002 4.26855 14.7502 6.28418 16.6252C8.2998 18.5002 10.9717 20.0002 14.2998 20.0002C17.5811 20.0002 20.2529 18.5002 22.2686 16.6252C24.2842 14.7502 25.6436 12.5002 26.2998 11.0002C25.6436 9.50024 24.2842 7.25024 22.2686 5.37524C20.2529 3.50024 17.5811 2.00024 14.2998 2.00024C10.9717 2.00024 8.2998 3.50024 6.28418 5.37524ZM14.2998 0.500244C18.0498 0.500244 21.0967 2.23462 23.2998 4.29712C25.5029 6.31274 26.9561 8.75024 27.6592 10.4377C27.7998 10.8127 27.7998 11.2346 27.6592 11.6096C26.9561 13.2502 25.5029 15.6877 23.2998 17.7502C21.0967 19.8127 18.0498 21.5002 14.2998 21.5002C10.5029 21.5002 7.45605 19.8127 5.25293 17.7502C3.0498 15.6877 1.59668 13.2502 0.893555 11.6096C0.75293 11.2346 0.75293 10.8127 0.893555 10.4377C1.59668 8.75024 3.0498 6.31274 5.25293 4.29712C7.45605 2.23462 10.5029 0.500244 14.2998 0.500244ZM9.7998 11.0002C9.7998 12.6409 10.6436 14.094 12.0498 14.9377C13.4092 15.7346 15.1436 15.7346 16.5498 14.9377C17.9092 14.094 18.7998 12.6409 18.7998 11.0002C18.7998 9.40649 17.9092 7.95337 16.5498 7.10962C15.1436 6.31274 13.4092 6.31274 12.0498 7.10962C10.6436 7.95337 9.7998 9.40649 9.7998 11.0002ZM20.2998 11.0002C20.2998 13.1565 19.1279 15.1252 17.2998 16.2034C15.4248 17.2815 13.1279 17.2815 11.2998 16.2034C9.4248 15.1252 8.2998 13.1565 8.2998 11.0002C8.2998 8.89087 9.4248 6.92212 11.2998 5.84399C13.1279 4.76587 15.4248 4.76587 17.2998 5.84399C19.1279 6.92212 20.2998 8.89087 20.2998 11.0002Z" fill="#00838B"/>
</svg>
