<svg width="25" height="24" viewBox="0 0 25 24" fill="none" xmlns="http://www.w3.org/2000/svg">
<path d="M12.7285 0.140869L23.6504 6.28149C24.1191 6.56274 24.4004 7.03149 24.4004 7.54712C24.4004 8.34399 23.7441 9.00024 22.9004 9.00024H12.4004H1.85352C1.05664 9.00024 0.400391 8.34399 0.400391 7.54712C0.400391 7.03149 0.681641 6.56274 1.10352 6.28149L12.0254 0.140869C12.2598 0.000244141 12.541 0.000244141 12.7285 0.140869ZM14.7441 7.50024H22.7598L12.4004 1.64087L1.99414 7.50024H10.0098C9.82227 7.17212 9.77539 6.79712 9.77539 6.37524C9.77539 4.96899 10.9473 3.75024 12.4004 3.75024C13.8066 3.75024 15.0254 4.96899 15.0254 6.37524C15.0254 6.79712 14.9316 7.17212 14.7441 7.50024ZM12.4004 5.25024C11.7441 5.25024 11.2754 5.76587 11.2754 6.37524C11.2754 7.03149 11.7441 7.50024 12.4004 7.50024C13.0098 7.50024 13.5254 7.03149 13.5254 6.37524C13.5254 5.76587 13.0098 5.25024 12.4004 5.25024ZM3.40039 16.5002V10.5002H4.90039V16.5002H8.65039V10.5002H10.1504V16.5002H14.6504V10.5002H16.1504V16.5002H19.9004V10.5002H21.4004V16.5002C21.7754 16.5002 22.1504 16.8752 22.1504 17.2502C22.1504 17.6721 21.7754 18.0002 21.4004 18.0002H3.40039C2.97852 18.0002 2.65039 17.6721 2.65039 17.2502C2.65039 16.8752 2.97852 16.5002 3.40039 16.5002ZM2.27539 19.5002H22.5254C22.9004 19.5002 23.2754 19.8752 23.2754 20.2502C23.2754 20.6721 22.9004 21.0002 22.5254 21.0002H2.27539C1.85352 21.0002 1.52539 20.6721 1.52539 20.2502C1.52539 19.8752 1.85352 19.5002 2.27539 19.5002ZM1.15039 22.5002H23.6504C24.0254 22.5002 24.4004 22.8752 24.4004 23.2502C24.4004 23.6721 24.0254 24.0002 23.6504 24.0002H1.15039C0.728516 24.0002 0.400391 23.6721 0.400391 23.2502C0.400391 22.8752 0.728516 22.5002 1.15039 22.5002Z" fill="#009CA6"/>
</svg>
