<svg width="64" height="64" viewBox="0 0 64 64" fill="none" xmlns="http://www.w3.org/2000/svg">
<path d="M2.61377 40.9438V61.3865" stroke="white" stroke-width="2.672" stroke-linecap="round" stroke-linejoin="round"/>
<path d="M40.9438 58.8308C40.9438 56.7976 40.1361 54.8477 38.6985 53.4101C37.2608 51.9724 35.3109 51.1648 33.2778 51.1648H23.6953C23.6953 49.1316 22.8876 47.1818 21.4499 45.7441C20.0123 44.3064 18.0624 43.4988 16.0293 43.4988H2.61377V58.8308H40.9438Z" stroke="white" stroke-width="2.672" stroke-linecap="round" stroke-linejoin="round"/>
<path d="M16.0293 51.1648H25.6118" stroke="white" stroke-width="2.672" stroke-linecap="round" stroke-linejoin="round"/>
<path d="M61.3862 23.0564V2.61377" stroke="white" stroke-width="2.672" stroke-linecap="round" stroke-linejoin="round"/>
<path d="M23.0562 5.16919C23.0562 7.20234 23.8638 9.15222 25.3015 10.5899C26.7391 12.0275 28.689 12.8352 30.7222 12.8352H40.3047C40.3047 14.8683 41.1123 16.8182 42.55 18.2559C43.9876 19.6935 45.9375 20.5012 47.9707 20.5012H61.3862V5.16919H23.0562Z" stroke="white" stroke-width="2.672" stroke-linecap="round" stroke-linejoin="round"/>
<path d="M47.9707 12.8352H38.3882" stroke="white" stroke-width="2.672" stroke-linecap="round" stroke-linejoin="round"/>
<path d="M32.0003 27.4132C29.8129 23.9891 23.2432 25.2131 23.2432 31.3254C23.3582 35.9915 29.4347 39.7069 31.3972 40.7802C31.5819 40.8819 31.7894 40.9353 32.0003 40.9353C32.2112 40.9353 32.4186 40.8819 32.6034 40.7802C34.5658 39.6993 40.6424 35.9838 40.7574 31.3254C40.7574 25.2131 34.1902 23.9891 32.0003 27.4132Z" stroke="white" stroke-width="2.672" stroke-linecap="round" stroke-linejoin="round"/>
</svg>
