<svg width="167" height="64" viewBox="0 0 167 64" fill="none" xmlns="http://www.w3.org/2000/svg">
<path d="M18.1335 0.414551V2.644H24.8578V22.5121H27.3344V2.644H34.0587V0.414551H18.1335Z" fill="white"/>
<path d="M26.8052 27.8926C20.6454 27.8926 18.197 32.6539 18.197 37.1198C18.197 40.7629 20.5819 46.3471 26.8052 46.3471C33.0285 46.3471 35.4134 40.7629 35.4134 37.1198C35.4134 32.6539 32.965 27.8926 26.8052 27.8926ZM26.8052 25.6561C33.3248 25.6561 38.0664 30.0376 38.0664 37.1198C38.0664 43.7941 33.1978 48.5836 26.8052 48.5836C20.4125 48.5836 15.5439 44.202 15.5439 37.1198C15.5439 30.4455 20.4125 25.6561 26.8052 25.6561Z" fill="white"/>
<path d="M13.124 6.17495C13.0041 4.38154 11.6493 2.23649 8.10725 2.23649C4.56518 2.23649 3.09755 4.23385 3.09755 6.35077C3.09755 7.82066 3.97954 9.19913 8.0508 9.99385C13.625 11.084 16.1298 12.4343 16.1298 16.2813C16.1298 19.6009 13.7731 22.9205 8.02257 22.9205C3.00582 22.9205 0.239901 20.4519 0 16.3939H2.50485C2.94937 19.3055 4.92503 20.684 8.13547 20.684C11.9386 20.684 13.4697 18.4756 13.4697 16.5134C13.4697 14.1011 12.115 13.3415 8.19192 12.5187C3.09755 11.4637 0.62092 10.0501 0.62092 6.35077C0.62092 2.65143 3.59852 0 8.07902 0C13.5332 0 15.2126 2.96791 15.6571 6.17495H13.124Z" fill="white"/>
<path d="M1.06543 46.1154C1.74279 46.2912 2.30021 46.3475 3.7749 46.3475C7.37341 46.3475 8.69993 44.4064 8.69993 40.9954V28.3009H1.20655V26.0714H11.1766V41.5299C11.1766 45.5246 9.25734 48.584 3.83135 48.584C2.80118 48.584 1.85569 48.5277 1.05837 48.3167V46.1154H1.06543Z" fill="white"/>
<path d="M54.2247 31.8311C54.1048 30.0377 52.75 27.8926 49.2079 27.8926C45.6659 27.8926 44.1983 29.89 44.1983 32.0069C44.1983 33.4768 45.0802 34.8553 49.1515 35.65C54.7257 36.7401 57.2305 38.0905 57.2305 41.9375C57.2305 45.2571 54.8739 48.5766 49.1233 48.5766C44.1065 48.5766 41.3406 46.108 41.1007 42.05H43.6056C44.0501 44.9617 46.0257 46.3401 49.2362 46.3401C53.0393 46.3401 54.5704 44.1388 54.5704 42.1696C54.5704 39.7573 53.2157 38.9977 49.2926 38.1748C44.1912 37.1199 41.7146 35.7063 41.7146 31.9999C41.7146 28.2935 44.6922 25.6491 49.1727 25.6491C54.6269 25.6491 56.3062 28.617 56.7507 31.8241H54.2176L54.2247 31.8311Z" fill="white"/>
<path d="M61.5134 26.0714H74.0165V28.3079H63.9901V35.7136H73.7202V37.9431H63.9901V45.9396H74.0165V48.1761H61.5134V26.0714Z" fill="white"/>
<path d="M84.805 37.4155C87.6345 37.4155 90.1393 36.2129 90.1393 32.8582C90.1393 29.5034 88.0155 28.3008 85.0097 28.3008H80.9737V37.4085H84.805V37.4155ZM78.4971 26.0713H85.5459C90.0899 26.0713 92.7994 28.6313 92.7994 32.8863C92.7994 37.1412 89.6172 39.645 85.1931 39.645H80.9737V48.1689H78.4971V26.0643V26.0713Z" fill="white"/>
<path d="M96.5108 26.0714H98.9874V35.7136H110.312V26.0714H112.789V48.1761H110.312V37.9431H98.9874V48.1761H96.5108V26.0714Z" fill="white"/>
<path d="M119.485 25.6563L121.842 26.7464L118.455 33.4769L116.945 32.7736L119.485 25.6563Z" fill="white"/>
<path d="M136.617 31.8311C136.497 30.0377 135.142 27.8926 131.607 27.8926C128.072 27.8926 126.59 29.89 126.59 32.0069C126.59 33.4768 127.479 34.8553 131.543 35.65C137.118 36.7401 139.622 38.0905 139.622 41.9375C139.622 45.2571 137.266 48.5766 131.515 48.5766C126.498 48.5766 123.733 46.108 123.493 42.05H125.997C126.442 44.9617 128.418 46.3401 131.628 46.3401C135.431 46.3401 136.962 44.1388 136.962 42.1696C136.962 39.7573 135.608 38.9977 131.685 38.1748C126.583 37.1199 124.106 35.7063 124.106 31.9999C124.106 28.2935 127.084 25.6491 131.565 25.6491C137.019 25.6491 138.698 28.617 139.143 31.8241H136.61L136.617 31.8311Z" fill="white"/>
<path d="M6.66086 56.4181V59.8221H2.09568V56.4181H1.23486V63.9575H2.09568V60.6379H6.66086V63.9575H7.52168V56.4181H6.66086Z" fill="white"/>
<path d="M9.81489 56.4181V63.9575H15.0857V63.1346H10.6757V60.5535H14.493V59.7236H10.6757V57.241H14.9445V56.4181H9.81489Z" fill="white"/>
<path d="M19.5591 57.3957L21.2666 61.2216H17.8727L19.5591 57.3957ZM19.1357 56.4181L15.7419 63.9575H16.6591L17.4988 62.0515H21.6265L22.4661 63.9575H23.4046L20.0248 56.4181H19.1287H19.1357Z" fill="white"/>
<path d="M24.6041 56.4181V63.9575H28.7882V63.1346H25.472V56.4181H24.6041Z" fill="white"/>
<path d="M29.1622 56.4181V57.241H31.6247V63.9575H32.4926V57.241H34.9692V56.4181H29.1622Z" fill="white"/>
<path d="M41.6441 56.4181V59.8221H37.086V56.4181H36.2181V63.9575H37.086V60.6379H41.6441V63.9575H42.512V56.4181H41.6441Z" fill="white"/>
<path d="M53.7591 57.4945L53.237 58.1486C52.6513 57.5578 51.8328 57.1991 51.0002 57.1991C49.2927 57.1991 47.9168 58.5143 47.9168 60.1741C47.9168 61.8339 49.2927 63.149 51.0002 63.149C51.8328 63.149 52.6443 62.8044 53.237 62.2418L53.7662 62.8325C53.0182 63.5358 52.0022 63.993 50.9579 63.993C48.7776 63.993 47.0419 62.298 47.0419 60.167C47.0419 58.0361 48.7918 56.3833 50.9861 56.3833C52.0234 56.3833 53.0324 56.8053 53.7521 57.4804" fill="white"/>
<path d="M55.3185 56.4181V63.9575H60.5963V63.1346H56.1863V60.5535H60.0036V59.7236H56.1863V57.241H60.4552V56.4181H55.3185Z" fill="white"/>
<path d="M67.7933 56.4181V62.4805L63.2493 56.4181H62.3532V63.9575H63.2211V57.9021L67.758 63.9575H68.6471V56.4181H67.7933Z" fill="white"/>
<path d="M69.9171 56.4181V57.241H72.3796V63.9575H73.2475V57.241H75.7241V56.4181H69.9171Z" fill="white"/>
<path d="M79.8519 60.7437C81.2278 60.7437 82.0039 60.1389 82.0039 58.9644C82.0039 57.7899 81.2278 57.2413 79.8519 57.2413H77.8409V60.7437H79.8519ZM80.3599 61.5525C80.1976 61.5666 80.0283 61.5736 79.8519 61.5736H77.8409V63.9508H76.973V56.4114H79.8519C81.7428 56.4114 82.8365 57.3398 82.8365 58.9433C82.8365 60.1952 82.2297 61.0321 81.136 61.3908L82.9071 63.9578H81.9263L80.3599 61.5525Z" fill="white"/>
<path d="M84.784 56.4181V63.9575H90.0618V63.1346H85.6519V60.5535H89.4621V59.7236H85.6519V57.241H89.9207V56.4181H84.784Z" fill="white"/>
<path d="M94.7822 56.4184V63.9578H95.643V60.7226H99.1781V59.8927H95.643V57.2413H99.5873V56.4184H94.7822Z" fill="white"/>
<path d="M101.027 60.1882C101.027 61.848 102.431 63.1702 104.117 63.1702C105.804 63.1702 107.187 61.841 107.187 60.1882C107.187 58.5355 105.804 57.2133 104.117 57.2133C102.431 57.2133 101.027 58.5285 101.027 60.1882ZM108.076 60.1882C108.076 62.3122 106.326 64.0001 104.117 64.0001C101.909 64.0001 100.152 62.3122 100.152 60.1882C100.152 58.0643 101.902 56.3975 104.117 56.3975C106.333 56.3975 108.076 58.0643 108.076 60.1882Z" fill="white"/>
<path d="M115.83 60.8562C115.83 62.8184 114.638 64 112.662 64C110.686 64 109.473 62.8114 109.473 60.8562V56.4184H110.341V60.8562C110.341 62.3191 111.23 63.1701 112.662 63.1701C114.094 63.1701 114.962 62.3191 114.962 60.8562V56.4184H115.83V60.8562Z" fill="white"/>
<path d="M123.38 56.4184V62.4809L118.843 56.4184H117.947V63.9578H118.808V57.9024L123.352 63.9578H124.234V56.4184H123.38Z" fill="white"/>
<path d="M127.402 63.1353H129.603C131.289 63.1353 132.609 61.8764 132.609 60.1955C132.609 58.5146 131.268 57.2416 129.575 57.2416H127.402V63.1353ZM129.596 56.4117C131.798 56.4117 133.484 58.0364 133.484 60.1814C133.484 62.3265 131.783 63.9511 129.561 63.9511H126.534V56.4117H129.596Z" fill="white"/>
<path d="M137.597 57.396L139.305 61.222H135.911L137.597 57.396ZM137.174 56.4184L133.78 63.9578H134.698L135.537 62.0519H139.665L140.505 63.9578H141.443L138.063 56.4184H137.167H137.174Z" fill="white"/>
<path d="M140.928 56.4184V57.2413H143.39V63.9578H144.251V57.2413H146.728V56.4184H140.928Z" fill="white"/>
<path d="M148.845 56.4184H147.984V63.9578H148.845V56.4184Z" fill="white"/>
<path d="M151.3 60.1882C151.3 61.848 152.704 63.1702 154.391 63.1702C156.077 63.1702 157.46 61.841 157.46 60.1882C157.46 58.5355 156.077 57.2133 154.391 57.2133C152.704 57.2133 151.3 58.5285 151.3 60.1882ZM158.349 60.1882C158.349 62.3122 156.599 64.0001 154.391 64.0001C152.182 64.0001 150.425 62.3122 150.425 60.1882C150.425 58.0643 152.175 56.3975 154.391 56.3975C156.606 56.3975 158.349 58.0643 158.349 60.1882Z" fill="white"/>
<path d="M165.355 56.4184V62.4809L160.819 56.4184H159.922V63.9578H160.783V57.9024L165.327 63.9578H166.209V56.4184H165.355Z" fill="white"/>
</svg>
