<svg width="265" height="103" viewBox="0 0 265 103" fill="none" xmlns="http://www.w3.org/2000/svg">
<g opacity="0.5">
<path d="M28.9006 1.49561V5.04879H39.6174V36.7136H43.5645V5.04879H54.2813V1.49561H28.9006Z" fill="white"/>
<path d="M42.721 45.2887C32.9038 45.2887 29.0017 52.877 29.0017 59.9946C29.0017 65.8008 32.8026 74.7006 42.721 74.7006C52.6394 74.7006 56.4404 65.8008 56.4404 59.9946C56.4404 52.877 52.5382 45.2887 42.721 45.2887ZM42.721 41.7243C53.1117 41.7243 60.6686 48.7074 60.6686 59.9946C60.6686 70.6318 52.9093 78.265 42.721 78.265C32.5327 78.265 24.7734 71.2819 24.7734 59.9946C24.7734 49.3575 32.5327 41.7243 42.721 41.7243Z" fill="white"/>
</g>
<path d="M20.9164 10.6758C20.7252 7.81755 18.5661 4.39887 12.9209 4.39887C7.27575 4.39887 4.93671 7.58217 4.93671 10.956C4.93671 13.2987 6.34238 15.4956 12.831 16.7622C21.7148 18.4995 25.7069 20.6516 25.7069 26.7828C25.7069 32.0734 21.9509 37.3639 12.786 37.3639C4.79052 37.3639 0.382342 33.4297 0 26.9622H3.9921C4.70056 31.6026 7.84926 33.7995 12.9659 33.7995C19.0272 33.7995 21.4674 30.28 21.4674 27.1527C21.4674 23.3081 19.3083 22.0976 13.0559 20.7861C4.93671 19.1048 0.989592 16.8518 0.989592 10.956C0.989592 5.06019 5.73513 0.834473 12.8759 0.834473C21.5686 0.834473 24.245 5.56459 24.9535 10.6758H20.9164Z" fill="white"/>
<path d="M1.69802 74.3309C2.77758 74.6111 3.66596 74.7008 6.01624 74.7008C11.7514 74.7008 13.8655 71.6072 13.8655 66.1709V45.939H1.92293V42.3858H17.8126V67.0228C17.8126 73.3894 14.7539 78.2652 6.1062 78.2652C4.46438 78.2652 2.9575 78.1755 1.68678 77.8393V74.3309H1.69802Z" fill="white"/>
<path d="M86.4206 51.5653C86.2294 48.7071 84.0703 45.2884 78.4251 45.2884C72.78 45.2884 70.4409 48.4717 70.4409 51.8455C70.4409 54.1882 71.8466 56.3851 78.3352 57.6517C87.219 59.389 91.2111 61.5411 91.2111 67.6723C91.2111 72.9629 87.4552 78.2534 78.2902 78.2534C70.2948 78.2534 65.8866 74.3192 65.5042 67.8517H69.4963C70.2048 72.4921 73.3535 74.689 78.4701 74.689C84.5314 74.689 86.9716 71.1807 86.9716 68.0422C86.9716 64.1976 84.8125 62.9871 78.5601 61.6756C70.4297 59.9943 66.4826 57.7413 66.4826 51.8343C66.4826 45.9273 71.2281 41.7128 78.3689 41.7128C87.0616 41.7128 89.738 46.4429 90.4464 51.5541H86.4094L86.4206 51.5653Z" fill="white"/>
<path d="M98.037 42.3858H117.964V45.9502H101.984V57.7531H117.492V61.3063H101.984V74.0507H117.964V77.6151H98.037V42.3858Z" fill="white"/>
<path d="M135.158 60.4655C139.667 60.4655 143.659 58.5488 143.659 53.2022C143.659 47.8556 140.275 45.9389 135.484 45.9389H129.052V60.4542H135.158V60.4655ZM125.105 42.3857H136.339C143.581 42.3857 147.899 46.4657 147.899 53.247C147.899 60.0283 142.827 64.0186 135.776 64.0186H129.052V77.6037H125.105V42.3745V42.3857Z" fill="white"/>
<path d="M153.814 42.3858H157.761V57.7531H175.81V42.3858H179.757V77.6151H175.81V61.3063H157.761V77.6151H153.814V42.3858Z" fill="white"/>
<path d="M190.429 41.7241L194.185 43.4615L188.787 54.1883L186.381 53.0675L190.429 41.7241Z" fill="white"/>
<path d="M217.733 51.5653C217.542 48.7071 215.382 45.2884 209.749 45.2884C204.115 45.2884 201.753 48.4717 201.753 51.8455C201.753 54.1882 203.17 56.3851 209.647 57.6517C218.531 59.389 222.523 61.5411 222.523 67.6723C222.523 72.9629 218.767 78.2534 209.602 78.2534C201.607 78.2534 197.199 74.3192 196.816 67.8517H200.808C201.517 72.4921 204.666 74.689 209.782 74.689C215.843 74.689 218.284 71.1807 218.284 68.0422C218.284 64.1976 216.125 62.9871 209.872 61.6756C201.742 59.9943 197.795 57.7413 197.795 51.8343C197.795 45.9273 202.54 41.7128 209.681 41.7128C218.374 41.7128 221.05 46.4429 221.759 51.5541H217.721L217.733 51.5653Z" fill="white"/>
<path d="M10.6155 90.7513V96.1764H3.33971V90.7513H1.96777V102.767H3.33971V97.4766H10.6155V102.767H11.9874V90.7513H10.6155Z" fill="white"/>
<path d="M15.6422 90.7513V102.767H24.0425V101.456H17.0141V97.3421H23.0979V96.0194H17.0141V92.0627H23.8176V90.7513H15.6422Z" fill="white"/>
<path d="M31.172 92.3093L33.8934 98.4069H28.4844L31.172 92.3093ZM30.4973 90.7513L25.0883 102.767H26.5502L27.8884 99.7295H34.4669L35.8051 102.767H37.3007L31.9142 90.7513H30.4861H30.4973Z" fill="white"/>
<path d="M39.2125 90.7513V102.767H45.881V101.456H40.5956V90.7513H39.2125Z" fill="white"/>
<path d="M46.4769 90.7513V92.0627H50.4015V102.767H51.7847V92.0627H55.7318V90.7513H46.4769Z" fill="white"/>
<path d="M66.37 90.7513V96.1764H59.1055V90.7513H57.7223V102.767H59.1055V97.4766H66.37V102.767H67.7532V90.7513H66.37Z" fill="white"/>
<path d="M85.6783 92.4668L84.8461 93.5092C83.9127 92.5677 82.6083 91.996 81.2813 91.996C78.56 91.996 76.3671 94.0921 76.3671 96.7373C76.3671 99.3826 78.56 101.479 81.2813 101.479C82.6083 101.479 83.9015 100.929 84.8461 100.033L85.6895 100.974C84.4975 102.095 82.8782 102.824 81.2139 102.824C77.739 102.824 74.9727 100.122 74.9727 96.7261C74.9727 93.3299 77.7615 90.6958 81.2589 90.6958C82.9119 90.6958 84.52 91.3683 85.667 92.4444" fill="white"/>
<path d="M88.1635 90.7513V102.767H96.575V101.456H89.5466V97.3421H95.6304V96.0194H89.5466V92.0627H96.3501V90.7513H88.1635Z" fill="white"/>
<path d="M108.045 90.7513V100.413L100.803 90.7513H99.3751V102.767H100.758V93.1164L107.989 102.767H109.406V90.7513H108.045Z" fill="white"/>
<path d="M111.43 90.7513V92.0627H115.355V102.767H116.738V92.0627H120.685V90.7513H111.43Z" fill="white"/>
<path d="M127.264 97.6452C129.456 97.6452 130.693 96.6813 130.693 94.8094C130.693 92.9375 129.456 92.0633 127.264 92.0633H124.059V97.6452H127.264ZM128.073 98.9343C127.815 98.9567 127.545 98.9679 127.264 98.9679H124.059V102.756H122.675V90.7406H127.264C130.277 90.7406 132.02 92.2202 132.02 94.7758C132.02 96.771 131.053 98.1048 129.31 98.6765L132.133 102.768H130.57L128.073 98.9343Z" fill="white"/>
<path d="M135.124 90.7513V102.767H143.536V101.456H136.507V97.3421H142.58V96.0194H136.507V92.0627H143.311V90.7513H135.124Z" fill="white"/>
<g opacity="0.5">
<path d="M151.059 90.7512V102.767H152.431V97.611H158.065V96.2884H152.431V92.0626H158.717V90.7512H151.059Z" fill="white"/>
<path d="M161.011 96.7593C161.011 99.4046 163.249 101.512 165.937 101.512C168.624 101.512 170.828 99.3934 170.828 96.7593C170.828 94.1252 168.624 92.018 165.937 92.018C163.249 92.018 161.011 94.114 161.011 96.7593ZM172.245 96.7593C172.245 100.144 169.456 102.834 165.937 102.834C162.417 102.834 159.617 100.144 159.617 96.7593C159.617 93.3743 162.406 90.7178 165.937 90.7178C169.468 90.7178 172.245 93.3743 172.245 96.7593Z" fill="white"/>
<path d="M184.604 97.824C184.604 100.951 182.703 102.834 179.555 102.834C176.406 102.834 174.472 100.94 174.472 97.824V90.7512H175.855V97.824C175.855 100.155 177.272 101.512 179.555 101.512C181.838 101.512 183.221 100.155 183.221 97.824V90.7512H184.604V97.824Z" fill="white"/>
<path d="M196.636 90.7512V100.413L189.406 90.7512H187.977V102.767H189.349V93.1163L196.591 102.767H197.997V90.7512H196.636Z" fill="white"/>
<path d="M203.046 101.456H206.555C209.242 101.456 211.345 99.4498 211.345 96.7709C211.345 94.092 209.209 92.0632 206.51 92.0632H203.046V101.456ZM206.544 90.7405C210.052 90.7405 212.74 93.3298 212.74 96.7485C212.74 100.167 210.03 102.756 206.487 102.756H201.663V90.7405H206.544Z" fill="white"/>
<path d="M219.296 92.3092L222.017 98.4068H216.608L219.296 92.3092ZM218.621 90.7512L213.212 102.767H214.674L216.012 99.7295H222.591L223.929 102.767H225.425L220.038 90.7512H218.61H218.621Z" fill="white"/>
<path d="M224.604 90.7512V92.0626H228.528V102.767H229.9V92.0626H233.847V90.7512H224.604Z" fill="white"/>
<path d="M237.221 90.7512H235.849V102.767H237.221V90.7512Z" fill="white"/>
<path d="M241.134 96.7593C241.134 99.4046 243.372 101.512 246.06 101.512C248.747 101.512 250.951 99.3934 250.951 96.7593C250.951 94.1252 248.747 92.018 246.06 92.018C243.372 92.018 241.134 94.114 241.134 96.7593ZM252.368 96.7593C252.368 100.144 249.58 102.834 246.06 102.834C242.54 102.834 239.74 100.144 239.74 96.7593C239.74 93.3743 242.529 90.7178 246.06 90.7178C249.591 90.7178 252.368 93.3743 252.368 96.7593Z" fill="white"/>
<path d="M263.535 90.7512V100.413L256.304 90.7512H254.876V102.767H256.248V93.1163L263.49 102.767H264.896V90.7512H263.535Z" fill="white"/>
</g>
</svg>
