<svg width="167" height="64" viewBox="0 0 167 64" fill="none" xmlns="http://www.w3.org/2000/svg">
<path d="M18.1345 0.414551V2.644H24.8588V22.5121H27.3354V2.644H34.0597V0.414551H18.1345Z" fill="#00838B"/>
<path d="M26.8062 27.8926C20.6463 27.8926 18.1979 32.6539 18.1979 37.1198C18.1979 40.7629 20.5828 46.3471 26.8062 46.3471C33.0295 46.3471 35.4144 40.7629 35.4144 37.1198C35.4144 32.6539 32.966 27.8926 26.8062 27.8926ZM26.8062 25.6561C33.3258 25.6561 38.0674 30.0376 38.0674 37.1198C38.0674 43.7941 33.1988 48.5836 26.8062 48.5836C20.4135 48.5836 15.5449 44.202 15.5449 37.1198C15.5449 30.4455 20.4135 25.6561 26.8062 25.6561Z" fill="#00838B"/>
<path d="M13.124 6.17495C13.0041 4.38154 11.6493 2.23649 8.10725 2.23649C4.56518 2.23649 3.09755 4.23385 3.09755 6.35077C3.09755 7.82066 3.97954 9.19913 8.0508 9.99385C13.625 11.084 16.1298 12.4343 16.1298 16.2813C16.1298 19.6009 13.7731 22.9205 8.02257 22.9205C3.00582 22.9205 0.239901 20.4519 0 16.3939H2.50485C2.94937 19.3055 4.92503 20.684 8.13547 20.684C11.9386 20.684 13.4697 18.4756 13.4697 16.5134C13.4697 14.1011 12.115 13.3415 8.19192 12.5187C3.09755 11.4637 0.62092 10.0501 0.62092 6.35077C0.62092 2.65143 3.59852 0 8.07902 0C13.5332 0 15.2126 2.96791 15.6571 6.17495H13.124Z" fill="#4E4B48"/>
<path d="M1.06543 46.1154C1.74279 46.2912 2.30021 46.3475 3.7749 46.3475C7.37341 46.3475 8.69993 44.4064 8.69993 40.9954V28.3009H1.20655V26.0714H11.1766V41.5299C11.1766 45.5246 9.25734 48.584 3.83135 48.584C2.80118 48.584 1.85569 48.5277 1.05837 48.3167V46.1154H1.06543Z" fill="#4E4B48"/>
<path d="M54.2247 31.8311C54.1048 30.0377 52.75 27.8926 49.2079 27.8926C45.6659 27.8926 44.1983 29.89 44.1983 32.0069C44.1983 33.4768 45.0802 34.8553 49.1515 35.65C54.7257 36.7401 57.2305 38.0905 57.2305 41.9375C57.2305 45.2571 54.8739 48.5766 49.1233 48.5766C44.1065 48.5766 41.3406 46.108 41.1007 42.05H43.6056C44.0501 44.9617 46.0257 46.3401 49.2362 46.3401C53.0393 46.3401 54.5704 44.1388 54.5704 42.1696C54.5704 39.7573 53.2157 38.9977 49.2926 38.1748C44.1912 37.1199 41.7146 35.7063 41.7146 31.9999C41.7146 28.2935 44.6922 25.6491 49.1727 25.6491C54.6269 25.6491 56.3062 28.617 56.7507 31.8241H54.2176L54.2247 31.8311Z" fill="#4E4B48"/>
<path d="M61.5134 26.0714H74.0165V28.3079H63.9901V35.7136H73.7202V37.9431H63.9901V45.9396H74.0165V48.1761H61.5134V26.0714Z" fill="#4E4B48"/>
<path d="M84.805 37.4155C87.6345 37.4155 90.1393 36.2129 90.1393 32.8582C90.1393 29.5034 88.0155 28.3008 85.0097 28.3008H80.9737V37.4085H84.805V37.4155ZM78.4971 26.0713H85.5459C90.0899 26.0713 92.7994 28.6313 92.7994 32.8863C92.7994 37.1412 89.6172 39.645 85.1931 39.645H80.9737V48.1689H78.4971V26.0643V26.0713Z" fill="#4E4B48"/>
<path d="M96.5108 26.0714H98.9874V35.7136H110.312V26.0714H112.789V48.1761H110.312V37.9431H98.9874V48.1761H96.5108V26.0714Z" fill="#4E4B48"/>
<path d="M119.485 25.6563L121.842 26.7464L118.455 33.4769L116.945 32.7736L119.485 25.6563Z" fill="#4E4B48"/>
<path d="M136.617 31.8311C136.497 30.0377 135.142 27.8926 131.607 27.8926C128.072 27.8926 126.59 29.89 126.59 32.0069C126.59 33.4768 127.479 34.8553 131.543 35.65C137.118 36.7401 139.622 38.0905 139.622 41.9375C139.622 45.2571 137.266 48.5766 131.515 48.5766C126.498 48.5766 123.733 46.108 123.493 42.05H125.997C126.442 44.9617 128.418 46.3401 131.628 46.3401C135.431 46.3401 136.962 44.1388 136.962 42.1696C136.962 39.7573 135.608 38.9977 131.685 38.1748C126.583 37.1199 124.106 35.7063 124.106 31.9999C124.106 28.2935 127.084 25.6491 131.565 25.6491C137.019 25.6491 138.698 28.617 139.143 31.8241H136.61L136.617 31.8311Z" fill="#4E4B48"/>
<path d="M6.66037 56.4181V59.8221H2.0952V56.4181H1.23438V63.9575H2.0952V60.6379H6.66037V63.9575H7.52119V56.4181H6.66037Z" fill="#978B87"/>
<path d="M9.81441 56.4181V63.9575H15.0852V63.1346H10.6752V60.5535H14.4925V59.7236H10.6752V57.241H14.9441V56.4181H9.81441Z" fill="#978B87"/>
<path d="M19.5586 57.3957L21.2661 61.2216H17.8722L19.5586 57.3957ZM19.1353 56.4181L15.7414 63.9575H16.6586L17.4983 62.0515H21.626L22.4657 63.9575H23.4041L20.0243 56.4181H19.1282H19.1353Z" fill="#978B87"/>
<path d="M24.6036 56.4181V63.9575H28.7878V63.1346H25.4715V56.4181H24.6036Z" fill="#978B87"/>
<path d="M29.1617 56.4181V57.241H31.6242V63.9575H32.4921V57.241H34.9687V56.4181H29.1617Z" fill="#978B87"/>
<path d="M41.6436 56.4181V59.8221H37.0855V56.4181H36.2176V63.9575H37.0855V60.6379H41.6436V63.9575H42.5115V56.4181H41.6436Z" fill="#978B87"/>
<path d="M53.7586 57.4945L53.2365 58.1486C52.6508 57.5578 51.8324 57.1991 50.9998 57.1991C49.2922 57.1991 47.9163 58.5143 47.9163 60.1741C47.9163 61.8339 49.2922 63.149 50.9998 63.149C51.8324 63.149 52.6438 62.8044 53.2365 62.2418L53.7657 62.8325C53.0177 63.5358 52.0017 63.993 50.9574 63.993C48.7771 63.993 47.0414 62.298 47.0414 60.167C47.0414 58.0361 48.7913 56.3833 50.9857 56.3833C52.0229 56.3833 53.0319 56.8053 53.7516 57.4804" fill="#978B87"/>
<path d="M55.318 56.4181V63.9575H60.5958V63.1346H56.1858V60.5535H60.0031V59.7236H56.1858V57.241H60.4547V56.4181H55.318Z" fill="#978B87"/>
<path d="M67.7928 56.4181V62.4805L63.2488 56.4181H62.3527V63.9575H63.2206V57.9021L67.7576 63.9575H68.6466V56.4181H67.7928Z" fill="#978B87"/>
<path d="M69.9166 56.4181V57.241H72.3792V63.9575H73.247V57.241H75.7237V56.4181H69.9166Z" fill="#978B87"/>
<path d="M79.8514 60.7437C81.2273 60.7437 82.0034 60.1389 82.0034 58.9644C82.0034 57.7899 81.2273 57.2413 79.8514 57.2413H77.8404V60.7437H79.8514ZM80.3594 61.5525C80.1971 61.5666 80.0278 61.5736 79.8514 61.5736H77.8404V63.9508H76.9726V56.4114H79.8514C81.7424 56.4114 82.836 57.3398 82.836 58.9433C82.836 60.1952 82.2292 61.0321 81.1356 61.3908L82.9066 63.9578H81.9258L80.3594 61.5525Z" fill="#978B87"/>
<path d="M84.7835 56.4181V63.9575H90.0613V63.1346H85.6514V60.5535H89.4616V59.7236H85.6514V57.241H89.9202V56.4181H84.7835Z" fill="#978B87"/>
<path d="M94.7812 56.4184V63.9578H95.6421V60.7226H99.1771V59.8927H95.6421V57.2413H99.5863V56.4184H94.7812Z" fill="#00838B"/>
<path d="M101.026 60.1882C101.026 61.848 102.43 63.1702 104.116 63.1702C105.803 63.1702 107.186 61.841 107.186 60.1882C107.186 58.5355 105.803 57.2133 104.116 57.2133C102.43 57.2133 101.026 58.5285 101.026 60.1882ZM108.075 60.1882C108.075 62.3122 106.325 64.0001 104.116 64.0001C101.908 64.0001 100.151 62.3122 100.151 60.1882C100.151 58.0643 101.901 56.3975 104.116 56.3975C106.332 56.3975 108.075 58.0643 108.075 60.1882Z" fill="#00838B"/>
<path d="M115.829 60.8562C115.829 62.8184 114.637 64 112.661 64C110.685 64 109.472 62.8114 109.472 60.8562V56.4184H110.34V60.8562C110.34 62.3191 111.229 63.1701 112.661 63.1701C114.093 63.1701 114.961 62.3191 114.961 60.8562V56.4184H115.829V60.8562Z" fill="#00838B"/>
<path d="M123.379 56.4184V62.4809L118.842 56.4184H117.946V63.9578H118.807V57.9024L123.351 63.9578H124.233V56.4184H123.379Z" fill="#00838B"/>
<path d="M127.401 63.1353H129.602C131.289 63.1353 132.608 61.8764 132.608 60.1955C132.608 58.5146 131.267 57.2416 129.574 57.2416H127.401V63.1353ZM129.595 56.4117C131.797 56.4117 133.483 58.0364 133.483 60.1814C133.483 62.3265 131.782 63.9511 129.56 63.9511H126.533V56.4117H129.595Z" fill="#00838B"/>
<path d="M137.597 57.396L139.304 61.222H135.91L137.597 57.396ZM137.173 56.4184L133.779 63.9578H134.697L135.536 62.0519H139.664L140.504 63.9578H141.442L138.062 56.4184H137.166H137.173Z" fill="#00838B"/>
<path d="M140.927 56.4184V57.2413H143.389V63.9578H144.25V57.2413H146.727V56.4184H140.927Z" fill="#00838B"/>
<path d="M148.844 56.4184H147.983V63.9578H148.844V56.4184Z" fill="#00838B"/>
<path d="M151.299 60.1882C151.299 61.848 152.703 63.1702 154.39 63.1702C156.076 63.1702 157.459 61.841 157.459 60.1882C157.459 58.5355 156.076 57.2133 154.39 57.2133C152.703 57.2133 151.299 58.5285 151.299 60.1882ZM158.348 60.1882C158.348 62.3122 156.598 64.0001 154.39 64.0001C152.181 64.0001 150.424 62.3122 150.424 60.1882C150.424 58.0643 152.174 56.3975 154.39 56.3975C156.605 56.3975 158.348 58.0643 158.348 60.1882Z" fill="#00838B"/>
<path d="M165.354 56.4184V62.4809L160.818 56.4184H159.921V63.9578H160.782V57.9024L165.326 63.9578H166.208V56.4184H165.354Z" fill="#00838B"/>
</svg>
