<svg width="30" height="24" viewBox="0 0 30 24" fill="none" xmlns="http://www.w3.org/2000/svg">
<path id="Open Quote" d="M7.23809 24.0002C5.84127 24.0002 4.69841 23.7145 3.80952 23.1431C2.92063 22.5717 2.19048 21.8415 1.61905 20.9526C0.984127 19.8733 0.539682 18.7621 0.285714 17.6193C0.0952381 16.4129 0 15.4288 0 14.6669C0 11.5558 0.793651 8.7304 2.38095 6.19072C3.96825 3.65104 6.44444 1.58755 9.80952 0.000244141L10.6667 1.71453C8.69841 2.53993 6.98413 3.84151 5.52381 5.61929C4.12698 7.39707 3.42857 9.20659 3.42857 11.0479C3.42857 11.8098 3.52381 12.4764 3.71429 13.0479C4.73016 12.2225 5.90476 11.8098 7.23809 11.8098C8.88889 11.8098 10.3175 12.3494 11.5238 13.4288C12.7302 14.5082 13.3333 16.0002 13.3333 17.905C13.3333 19.6828 12.7302 21.1431 11.5238 22.286C10.3175 23.4288 8.88889 24.0002 7.23809 24.0002ZM23.4286 24.0002C22.0317 24.0002 20.8889 23.7145 20 23.1431C19.1111 22.5717 18.381 21.8415 17.8095 20.9526C17.1746 19.8733 16.7302 18.7621 16.4762 17.6193C16.2857 16.4129 16.1905 15.4288 16.1905 14.6669C16.1905 11.5558 16.9841 8.7304 18.5714 6.19072C20.1587 3.65104 22.6349 1.58755 26 0.000244141L26.8571 1.71453C24.8889 2.53993 23.1746 3.84151 21.7143 5.61929C20.3175 7.39707 19.619 9.20659 19.619 11.0479C19.619 11.8098 19.7143 12.4764 19.9048 13.0479C20.9206 12.2225 22.0952 11.8098 23.4286 11.8098C25.0794 11.8098 26.5079 12.3494 27.7143 13.4288C28.9206 14.5082 29.5238 16.0002 29.5238 17.905C29.5238 19.6828 28.9206 21.1431 27.7143 22.286C26.5079 23.4288 25.0794 24.0002 23.4286 24.0002Z" fill="#009CA6"/>
</svg>
