<svg width="31" height="25" viewBox="0 0 31 25" fill="none" xmlns="http://www.w3.org/2000/svg">
<path d="M4.70117 4.75024C4.70117 5.59399 5.12305 6.29712 5.82617 6.71899C6.48242 7.14087 7.37305 7.14087 8.07617 6.71899C8.73242 6.29712 9.20117 5.59399 9.20117 4.75024C9.20117 3.95337 8.73242 3.25024 8.07617 2.82837C7.37305 2.40649 6.48242 2.40649 5.82617 2.82837C5.12305 3.25024 4.70117 3.95337 4.70117 4.75024ZM10.7012 4.75024C10.7012 6.10962 9.95117 7.32837 8.82617 8.03149C7.6543 8.68774 6.20117 8.68774 5.07617 8.03149C3.9043 7.32837 3.20117 6.10962 3.20117 4.75024C3.20117 3.43774 3.9043 2.21899 5.07617 1.51587C6.20117 0.859619 7.6543 0.859619 8.82617 1.51587C9.95117 2.21899 10.7012 3.43774 10.7012 4.75024ZM15.2012 8.50024C14.123 8.50024 13.1387 9.10962 12.5762 10.0002C12.0605 10.9377 12.0605 12.1096 12.5762 13.0002C13.1387 13.9377 14.123 14.5002 15.2012 14.5002C16.2324 14.5002 17.2168 13.9377 17.7793 13.0002C18.2949 12.1096 18.2949 10.9377 17.7793 10.0002C17.2168 9.10962 16.2324 8.50024 15.2012 8.50024ZM15.2012 16.0002C13.5605 16.0002 12.1074 15.1565 11.2637 13.7502C10.4668 12.3909 10.4668 10.6565 11.2637 9.25024C12.1074 7.89087 13.5605 7.00024 15.2012 7.00024C16.7949 7.00024 18.248 7.89087 19.0918 9.25024C19.8887 10.6565 19.8887 12.3909 19.0918 13.7502C18.248 15.1565 16.7949 16.0002 15.2012 16.0002ZM12.4355 19.0002C9.9043 19.0002 7.79492 21.0159 7.70117 23.5002H22.6543C22.5605 21.0159 20.4512 19.0002 17.9199 19.0002H12.4355ZM12.4355 17.5002H17.9199C21.3887 17.5002 24.2012 20.3127 24.2012 23.7815C24.2012 24.4846 23.6387 25.0002 22.9355 25.0002H7.41992C6.7168 25.0002 6.20117 24.4377 6.20117 23.7815C6.20117 20.3127 8.9668 17.5002 12.4355 17.5002ZM24.2012 2.50024C23.3574 2.50024 22.6543 2.96899 22.2324 3.62524C21.8105 4.32837 21.8105 5.21899 22.2324 5.87524C22.6543 6.57837 23.3574 7.00024 24.2012 7.00024C24.998 7.00024 25.7012 6.57837 26.123 5.87524C26.5449 5.21899 26.5449 4.32837 26.123 3.62524C25.7012 2.96899 24.998 2.50024 24.2012 2.50024ZM24.2012 8.50024C22.8418 8.50024 21.623 7.79712 20.9199 6.62524C20.2637 5.50024 20.2637 4.04712 20.9199 2.87524C21.623 1.75024 22.8418 1.00024 24.2012 1.00024C25.5137 1.00024 26.7324 1.75024 27.4355 2.87524C28.0918 4.04712 28.0918 5.50024 27.4355 6.62524C26.7324 7.79712 25.5137 8.50024 24.2012 8.50024ZM24.9512 11.5002H21.2012C21.2012 10.9846 21.1074 10.5159 21.0137 10.0002H24.9512C27.8105 10.0002 30.2012 12.3909 30.2012 15.2502C30.2012 15.6721 29.8262 16.0002 29.4512 16.0002C29.0293 16.0002 28.7012 15.6721 28.7012 15.2502C28.7012 13.1877 27.0137 11.5002 24.9512 11.5002ZM9.20117 11.5002H5.45117C3.3418 11.5002 1.70117 13.1877 1.70117 15.2502C1.70117 15.6721 1.32617 16.0002 0.951172 16.0002C0.529297 16.0002 0.201172 15.6721 0.201172 15.2502C0.201172 12.3909 2.54492 10.0002 5.45117 10.0002H9.38867C9.24805 10.5159 9.20117 10.9846 9.20117 11.5002Z" fill="#009CA6"/>
</svg>
