<svg width="24" height="24" viewBox="0 0 24 24" fill="none" xmlns="http://www.w3.org/2000/svg">
<path d="M21.1875 7.73462C21.9844 6.37524 22.5 5.25024 22.5 4.50024C22.5 2.85962 21.1406 1.50024 19.5 1.50024C17.8125 1.50024 16.5 2.85962 16.5 4.50024C16.5 5.25024 16.9688 6.37524 17.7656 7.73462C18.3281 8.57837 18.9375 9.42212 19.5 10.0784C20.0156 9.42212 20.625 8.57837 21.1875 7.73462ZM20.0156 11.7659C19.8281 12.0002 19.5938 12.094 19.3125 12.0002H15.75C14.4844 12.0002 13.5 13.0315 13.5 14.2502C13.5 15.5159 14.4844 16.5002 15.75 16.5002H20.25C22.3125 16.5002 24 18.1877 24 20.2502C24 22.3596 22.3125 24.0002 20.25 24.0002H6.51562C6.89062 23.6252 7.3125 23.1096 7.78125 22.5002H20.25C21.4688 22.5002 22.5 21.5159 22.5 20.2502C22.5 19.0315 21.4688 18.0002 20.25 18.0002H15.75C13.6406 18.0002 12 16.3596 12 14.2502C12 12.1877 13.6406 10.5002 15.75 10.5002H17.9062C16.6406 8.81274 15 6.32837 15 4.50024C15 2.01587 17.0156 0.000244141 19.5 0.000244141C21.9844 0.000244141 24 2.01587 24 4.50024C24 6.89087 21.1875 10.4065 20.0156 11.7659ZM6.1875 19.594C7.03125 18.3284 7.5 17.2034 7.5 16.5002C7.5 14.8596 6.14062 13.5002 4.5 13.5002C2.8125 13.5002 1.5 14.8596 1.5 16.5002C1.5 17.2034 1.92188 18.3284 2.76562 19.594C3.32812 20.3909 3.9375 21.1877 4.5 21.7971C5.01562 21.1877 5.625 20.3909 6.1875 19.594ZM5.8125 22.5471C5.71875 22.6877 5.625 22.7815 5.48438 22.9221C5.39062 23.0159 5.29688 23.1096 5.25 23.2034C5.15625 23.2971 5.0625 23.3909 4.96875 23.4846C4.73438 23.7659 4.26562 23.7659 3.98438 23.4846C2.76562 22.1721 0 18.8909 0 16.5002C0 14.0159 2.01562 12.0002 4.5 12.0002C6.98438 12.0002 9 14.0159 9 16.5002C9 18.4221 7.125 20.9534 5.8125 22.5471ZM20.625 4.50024C20.625 5.15649 20.1094 5.62524 19.5 5.62524C18.8438 5.62524 18.375 5.15649 18.375 4.50024C18.375 3.89087 18.8438 3.37524 19.5 3.37524C20.1094 3.37524 20.625 3.89087 20.625 4.50024ZM4.5 17.6252C3.84375 17.6252 3.375 17.1565 3.375 16.5002C3.375 15.8909 3.84375 15.3752 4.5 15.3752C5.10938 15.3752 5.625 15.8909 5.625 16.5002C5.625 17.1565 5.10938 17.6252 4.5 17.6252Z" fill="#009CA6"/>
</svg>
