<svg width="247" height="49" viewBox="0 0 247 49" fill="none" xmlns="http://www.w3.org/2000/svg">
<path d="M75.6617 30.1449L75.933 30.4997H78.3257V10.0923H75.6617V26.0899L63.8165 10.6626L63.3783 10.0923H61.1526V30.4997H63.8165V14.7316L75.6617 30.1519V30.1449ZM55.4491 35.9806C52.0131 35.9806 49.2309 38.7628 49.2309 42.1988C49.2309 45.6348 52.0131 48.417 55.4491 48.417C58.8851 48.417 61.6673 45.6348 61.6673 42.1988C61.6673 38.7628 58.8851 35.9806 55.4491 35.9806ZM55.4491 46.9216C52.8338 46.9216 50.7194 44.8001 50.7194 42.1918C50.7194 39.5835 52.8408 37.4621 55.4491 37.4621C58.0574 37.4621 60.1788 39.5835 60.1788 42.1918C60.1788 44.8001 58.0574 46.9216 55.4491 46.9216ZM43.1379 36.1893H38.9994V37.6708H43.1379V48.1666H44.6403V37.6708H48.7788V36.1893H43.1448H43.1379ZM47.7841 30.8335C52.4721 30.8335 56.2698 27.3628 56.2698 23.0851V10.0923H53.6059V23.0851H53.592C53.432 25.756 50.9002 28.1765 47.7841 28.1765C44.6681 28.1765 42.1293 25.756 41.9763 23.0851H41.9624V10.0923H39.2985V23.0851C39.2985 27.3628 43.0962 30.8335 47.7841 30.8335ZM19.8788 23.8502V32.642C19.8788 37.956 22.6749 39.1592 23.899 39.4166C24.0381 39.4444 24.1842 39.4653 24.3303 39.4862C24.7406 38.6654 25.2554 37.6916 25.4362 36.7457C25.2136 36.7944 24.8241 36.85 24.5876 36.8083C23.2939 36.5579 22.5218 34.7773 22.5218 32.0438V23.0712C22.5218 23.0712 22.5079 23.0643 22.501 23.0573C22.3549 19.983 21.3603 17.5416 19.531 15.7958C18.6963 15.0029 17.7991 14.4534 16.9505 14.0778V17.0826C18.4946 18.1467 19.8718 20.136 19.8718 23.8433L19.8788 23.8502ZM86.0671 10.0923H83.4032V30.4997H86.0671V10.0923ZM6.60771 9.14635L6.72595 13.5561V33.6296C6.72595 34.0331 6.73986 34.4226 6.76073 34.8121C6.96244 38.3872 8.09618 41.1902 10.1341 43.1726C11.1079 44.0003 12.2695 44.6471 14.5996 44.8419C17.2148 44.9879 18.9328 44.4037 20.0596 43.7916C19.9135 43.7916 19.7675 43.7916 19.6214 43.7916C19.6005 43.7916 19.5866 43.7916 19.5658 43.7916C19.4823 43.7916 19.3988 43.7916 19.3154 43.7916C19.2875 43.7916 19.2597 43.7916 19.2249 43.7916C19.1554 43.7916 19.0789 43.7916 19.0093 43.7916C18.9746 43.7916 18.9398 43.7916 18.905 43.7916C18.8354 43.7916 18.7728 43.7916 18.7033 43.7846C18.6616 43.7846 18.6268 43.7846 18.585 43.7846C18.5224 43.7846 18.4598 43.7777 18.3903 43.7707C18.3486 43.7707 18.3068 43.7707 18.2651 43.7638C18.2025 43.7638 18.1399 43.7568 18.0773 43.7499C18.0356 43.7499 17.9938 43.7429 17.9521 43.736C17.8895 43.736 17.8269 43.722 17.7643 43.7151C17.7226 43.7151 17.6808 43.7081 17.6321 43.7012C17.5695 43.6942 17.5139 43.6873 17.4513 43.6803C17.4096 43.6803 17.3609 43.6664 17.3191 43.6594C17.2565 43.6525 17.2009 43.6455 17.1383 43.6316C17.0966 43.6316 17.0479 43.6177 17.0062 43.6108C16.9436 43.6038 16.8879 43.5899 16.8253 43.5829C16.7836 43.576 16.7349 43.569 16.6932 43.5551C16.6375 43.5412 16.5749 43.5342 16.5193 43.5203C16.4775 43.5134 16.4288 43.4995 16.3871 43.4925C16.3315 43.4786 16.2689 43.4647 16.2132 43.4577C16.1715 43.4508 16.1228 43.4369 16.0811 43.4299C16.0254 43.416 15.9628 43.4021 15.9072 43.3882C15.8655 43.3743 15.8168 43.3673 15.775 43.3534C15.7194 43.3395 15.6637 43.3256 15.6011 43.3047C15.5594 43.2908 15.5107 43.2769 15.469 43.263C15.4133 43.2491 15.3577 43.2282 15.2951 43.2073C15.2534 43.1934 15.2047 43.1795 15.1629 43.1656C15.1073 43.1447 15.0517 43.1308 14.996 43.11C14.9543 43.0961 14.9126 43.0821 14.8639 43.0613C14.8082 43.0404 14.7526 43.0195 14.6969 42.9987C14.6552 42.9848 14.6135 42.9639 14.5717 42.95C14.5161 42.9291 14.4604 42.9013 14.4048 42.8804C14.3631 42.8596 14.3213 42.8457 14.2796 42.8248C14.224 42.797 14.1683 42.7761 14.1127 42.7483C14.0709 42.7274 14.0292 42.7135 13.9944 42.6926C13.9388 42.6648 13.8831 42.637 13.8275 42.6092C13.7858 42.5883 13.751 42.5674 13.7093 42.5466C13.6536 42.5187 13.598 42.484 13.5423 42.4561C13.5075 42.4353 13.4658 42.4144 13.431 42.3935C13.3754 42.3588 13.3197 42.324 13.2641 42.2892C13.2293 42.2683 13.1945 42.2475 13.1598 42.2266C13.1041 42.1918 13.0485 42.1501 12.9859 42.1153C12.9511 42.0945 12.9233 42.0736 12.8885 42.0527C12.8259 42.011 12.7703 41.9693 12.7077 41.9206C12.6798 41.8997 12.652 41.8788 12.6312 41.8649C12.5616 41.8162 12.492 41.7606 12.4294 41.705C12.4155 41.691 12.3947 41.6771 12.3808 41.6632C12.2973 41.5937 12.2138 41.5241 12.1373 41.4476C10.2872 39.7713 9.35512 37.1422 9.35512 33.6296V10.8991C9.35512 8.889 8.80564 6.6702 8.124 5.22346C7.91534 4.81308 7.68581 4.43749 7.43541 4.09667C7.40759 4.06189 7.37977 4.02016 7.3589 3.99234C6.25298 2.49691 4.86188 1.61356 3.65858 1.0919V4.05494C4.98708 4.92437 6.2182 6.46153 6.58684 9.1533L6.60771 9.14635ZM23.5304 23.7181V27.161C25.4084 29.0529 26.4865 31.5221 26.563 34.2904C26.5769 34.7495 26.5421 35.1877 26.5004 35.5285C26.5004 35.5563 26.5004 35.5841 26.5004 35.605L26.4656 35.9249C26.4586 36.0293 26.4378 36.1406 26.4239 36.2449L26.3682 36.5649C26.3195 36.7735 26.2778 36.9822 26.2222 37.1908C26.0065 38.0185 25.6935 38.8115 25.311 39.5696C24.5389 41.079 23.4608 42.4422 22.1393 43.5064C21.4785 44.035 20.7482 44.4941 19.9761 44.8488C19.2041 45.2036 18.3833 45.4609 17.5487 45.607C17.0618 45.6904 16.568 45.7461 16.0741 45.76C15.7194 45.7739 15.3716 45.767 15.0169 45.7461C14.3561 45.6974 13.7023 45.5931 13.0554 45.454C8.77086 44.5497 5.15401 41.8649 3.4847 38.2133C2.93521 36.8083 2.65004 35.3337 2.65004 33.8313V0.70935C2.21184 0.570241 1.83625 0.486775 1.55803 0.438087C1.16852 0.368532 0.772058 0.472864 0.472973 0.723261C0.173887 0.973659 0 1.34925 0 1.73876V33.8313C0 35.6885 0.347774 37.4969 1.02941 39.2218C1.03637 39.2427 1.04332 39.2636 1.05723 39.2775C3.42905 44.5011 9.02821 48.0831 15.3229 48.4031C15.3438 48.4031 15.3647 48.4031 15.3925 48.4031C15.4203 48.4031 15.4412 48.4031 15.469 48.4031C17.9591 48.257 20.3865 47.471 22.4871 46.1217C24.0103 45.141 25.3249 43.9029 26.396 42.4422C27.5507 40.8633 28.3644 39.1036 28.8096 37.2187C28.8166 37.2048 28.8235 37.1908 28.8305 37.17C29.1017 36.5509 29.2339 35.1807 29.2061 34.2139C29.0809 29.9085 27.036 26.1734 23.5304 23.7181ZM70.1252 43.0265C71.8501 43.0265 73.2482 41.4963 73.2482 39.6044C73.2482 37.7125 71.8501 36.1823 70.1252 36.1823H64.1365V48.1596H65.6389V43.0195H67.0926L71.2102 48.1596H73.0325L68.9149 43.0195H70.1252V43.0265ZM65.6389 41.6145V37.5943H70.1252C70.9042 37.5943 71.8918 38.5263 71.8918 39.6044C71.8918 40.6825 71.0294 41.5867 70.1043 41.6076H65.6389V41.6145ZM13.3058 16.9782V32.0438C13.3058 32.1968 13.3058 32.3498 13.3058 32.5029C13.3058 32.6489 13.3128 32.788 13.3197 32.9271C13.3197 32.9341 13.3197 32.948 13.3197 32.955C13.5354 37.7473 15.4481 40.2373 17.0688 41.5032C17.1105 41.538 17.1522 41.5658 17.1939 41.6006C17.2079 41.6145 17.2218 41.6215 17.2357 41.6354C17.2357 41.6354 17.2357 41.6354 17.2426 41.6354C17.3331 41.705 17.4304 41.7676 17.5209 41.8302C18.5503 42.5257 19.9135 42.8596 21.1864 43.0682C22.2645 42.3796 22.8001 41.851 23.5026 40.8355C23.4956 40.8355 23.4817 40.8355 23.4747 40.8355C23.3704 40.8494 23.273 40.8564 23.1687 40.8633C23.1339 40.8633 23.0991 40.8633 23.0713 40.8703C22.967 40.8773 22.8557 40.8842 22.7514 40.8842C22.7305 40.8842 22.7027 40.8842 22.6818 40.8842C22.5705 40.8842 22.4523 40.8842 22.341 40.8842C22.334 40.8842 22.3201 40.8842 22.3132 40.8842C21.9376 40.8773 21.5689 40.8425 21.2073 40.7799C20.2404 40.6129 19.5449 40.0287 18.8076 39.4792C17.1035 38.2203 16.1158 35.9458 15.9628 32.9132V32.8367C15.9628 32.8367 15.9628 32.8019 15.9628 32.788C15.9628 32.6698 15.9559 32.5585 15.9489 32.4403C15.9489 32.4263 15.9489 32.4124 15.9489 32.3916C15.9489 32.2664 15.9489 32.1342 15.9489 32.009V18.7797C15.9489 15.4689 15.6011 13.4727 15.1143 12.1233C14.7734 11.2678 14.3492 10.5374 13.8762 9.91841C13.8762 9.91145 13.8623 9.9045 13.8553 9.89754C12.805 8.53427 11.5183 7.69961 10.3845 7.19186V10.1827C11.9286 11.2469 13.3058 13.2362 13.3058 16.9434V16.9782ZM105.751 36.1893H101.613V37.6708H105.751V48.1666H107.254V37.6708H111.392V36.1893H105.758H105.751ZM159.329 10.0923H158.383V30.4997H172.746V28.1348H161.047V21.4784H172.273V19.1136H161.047V12.4572H172.746V10.0923H159.329ZM186.379 10.0923H183.715L175.466 30.4997H178.13L180.383 24.9283H190.205L192.458 30.4997H195.122L186.873 10.0923H186.386H186.379ZM181.343 22.5635L185.294 12.7841L189.245 22.5635H181.336H181.343ZM200.631 10.0923H197.967V30.4997H212.33V28.1348H200.631V10.0923ZM217.06 10.0923H210.132V12.4572H217.06V30.4997H219.724V12.4572H226.589V10.0923H217.06ZM243.908 10.0923V19.1136H232.077V10.0923H229.413V30.4997H232.077V21.4784H243.908V30.4997H246.572V10.0923H243.908ZM81.0035 35.9806C77.5675 35.9806 74.7853 38.7628 74.7853 42.1988C74.7853 45.6348 77.5675 48.417 81.0035 48.417C84.4395 48.417 87.2217 45.6348 87.2217 42.1988C87.2217 38.7628 84.4395 35.9806 81.0035 35.9806ZM81.0035 46.9216C78.3883 46.9216 76.2738 44.8001 76.2738 42.1918C76.2738 39.5835 78.3952 37.4621 81.0035 37.4621C83.6118 37.4621 85.7333 39.5835 85.7333 42.1918C85.7333 44.8001 83.6118 46.9216 81.0035 46.9216ZM95.617 30.4997H98.2809V12.4572H105.146V10.0923H88.6963V12.4572H95.6239V30.4997H95.617ZM150.628 19.1136H138.797V10.0923H136.133V30.4997H138.797V21.4784H150.628V30.4997H153.292V10.0923H150.628V19.1136ZM98.3366 45.5583L91.082 36.1893H89.6979V48.1666H91.2003V38.8115L98.3366 48.0275L98.4479 48.1666H99.839V36.1893H98.3366V45.5583ZM116.143 19.7395L109.792 10.0923H106.836L114.814 22.2087V30.4997H117.478V22.2087L125.456 10.0923H122.5L116.15 19.7395H116.143ZM117.916 35.9806C114.48 35.9806 111.698 38.7628 111.698 42.1988C111.698 45.6348 114.48 48.417 117.916 48.417C121.352 48.417 124.134 45.6348 124.134 42.1988C124.134 38.7628 121.352 35.9806 117.916 35.9806ZM117.916 46.9216C115.301 46.9216 113.187 44.8001 113.187 42.1918C113.187 39.5835 115.308 37.4621 117.916 37.4621C120.525 37.4621 122.646 39.5835 122.646 42.1918C122.646 44.8001 120.525 46.9216 117.916 46.9216Z" fill="white"/>
</svg>
