<svg width="225" height="49" viewBox="0 0 225 49" fill="none" xmlns="http://www.w3.org/2000/svg">
<path d="M48.623 27.6565C46.1868 27.6565 43.7041 26.6848 42.3729 25.5332L41.055 27.4502C42.9054 29.0011 45.894 29.9463 48.6163 29.9463C52.7698 29.9463 56.2309 27.9428 56.2309 24.1221C56.2309 20.7408 53.4487 19.4229 50.2005 19.0236L48.5165 18.8172C45.641 18.4578 44.17 17.5725 44.17 15.8286C44.17 13.7586 46.1735 12.5005 48.9824 12.5005C51.1989 12.5005 53.1092 13.2128 54.6667 14.2711L55.8981 12.3142C54.0877 11.0695 51.8845 10.2175 48.9957 10.2175C44.9555 10.2175 41.6673 12.2876 41.6673 15.9884C41.6673 19.2632 44.19 20.7275 47.3517 21.1136L49.1355 21.3332C52.1241 21.706 53.7282 22.5513 53.7282 24.3351C53.7282 26.4984 51.4785 27.6632 48.6163 27.6632L48.623 27.6565ZM59.6921 45.9476L53.7482 38.2065L53.5285 37.9203H52.4103V48.1641H53.7482V40.2499L59.6921 47.9843L59.8252 48.1641H61.0233V37.9203H59.6855V45.9476H59.6921ZM48.623 44.4366H48.6163C48.5365 45.7745 47.2651 46.9926 45.701 46.9926C44.1368 46.9926 42.8654 45.7745 42.7856 44.4366H42.7789V37.9136H41.441V44.4366C41.441 46.5866 43.3513 48.3238 45.701 48.3238C48.0506 48.3238 49.9609 46.5799 49.9609 44.4366V37.9136H48.623V44.4366ZM69.7029 37.9203H66.2284V39.1051H69.7029V48.1574H71.0408V39.1051H74.4887V37.9203H69.7096H69.7029ZM80.0066 42.7593L76.8183 37.9203H75.334L79.3343 44.004V48.1641H80.6722V46.0341V44.004L84.6726 37.9203H83.1882L80 42.7593H80.0066ZM63.5726 48.1574H64.9105V37.9136H63.5726V48.1574ZM67.3999 29.6667V12.7735H73.9362V10.4837H58.4408V12.7735H64.9904V29.6667H67.3999ZM75.6868 29.9396C76.6852 29.9396 77.5505 29.061 77.5505 28.0493C77.5505 27.0375 76.6852 26.1855 75.6868 26.1855C74.6884 26.1855 73.8098 27.0508 73.8098 28.0493C73.8098 29.0477 74.6884 29.9396 75.6868 29.9396ZM185.127 21.1469H196.442V29.6667H198.852V10.4837H196.442V18.8705H185.127V10.4837H182.717V29.6667H185.127V21.1469ZM133.994 27.6565C131.558 27.6565 129.076 26.6848 127.744 25.5332L126.426 27.4502C128.277 29.0011 131.265 29.9463 133.988 29.9463C138.141 29.9463 141.609 27.9428 141.609 24.1221C141.609 20.7408 138.827 19.4229 135.579 19.0236L133.895 18.8172C131.019 18.4578 129.548 17.5725 129.548 15.8286C129.548 13.7586 131.552 12.5005 134.361 12.5005C136.577 12.5005 138.487 13.2128 140.045 14.2711L141.276 12.3142C139.466 11.0695 137.263 10.2175 134.374 10.2175C130.334 10.2175 127.045 12.2876 127.045 15.9884C127.045 19.2632 129.568 20.7275 132.73 21.1136L134.514 21.3332C137.502 21.706 139.106 22.5513 139.106 24.3351C139.106 26.4984 136.857 27.6632 133.994 27.6632V27.6565ZM97.3125 42.4465H91.3753V37.9203H90.0374V48.1641H91.3753V43.6379H97.3125V48.1641H98.6504V37.9203H97.3125V42.4465ZM23.5227 23.7161V27.1573C25.3998 29.0477 26.4781 31.5171 26.5579 34.286C26.5712 34.7453 26.538 35.1846 26.498 35.5241C26.498 35.5507 26.498 35.5773 26.498 35.604L26.4647 35.9235C26.4581 36.0299 26.4381 36.1364 26.4182 36.2429L26.3649 36.5624C26.3183 36.7688 26.2784 36.9818 26.2185 37.1881C25.9988 38.0135 25.6926 38.8056 25.3066 39.5644C24.5345 41.0753 23.4628 42.4331 22.1316 43.4981C21.466 44.0306 20.7405 44.4832 19.9684 44.8427C19.1963 45.2021 18.3776 45.455 17.5389 45.6015C17.053 45.688 16.5604 45.7412 16.0612 45.7545C15.7085 45.7679 15.3557 45.7612 15.0029 45.7412C14.3439 45.6946 13.685 45.5881 13.0393 45.4484C8.7528 44.5431 5.13853 41.8607 3.46784 38.2132C2.91538 36.8087 2.63583 35.3377 2.63583 33.8268V0.705899C2.20983 0.572776 1.83709 0.492903 1.55753 0.439654C1.17148 0.366436 0.77211 0.472934 0.472585 0.725867C0.173059 0.9788 0 1.35154 0 1.7376V33.8201C0 35.6772 0.346118 37.4876 1.0317 39.2116C1.03836 39.2315 1.04501 39.2515 1.05832 39.2715C3.4279 44.4965 9.0257 48.0775 15.3224 48.397C15.3424 48.397 15.369 48.397 15.389 48.397C15.4156 48.397 15.4422 48.397 15.4688 48.397C17.9582 48.2506 20.3877 47.4652 22.4844 46.114C24.0086 45.1355 25.3266 43.8975 26.3915 42.4398C27.5497 40.8623 28.3551 39.1051 28.8077 37.2214C28.8144 37.2081 28.821 37.1881 28.8277 37.1748C29.1006 36.5558 29.2337 35.1846 29.2004 34.2195C29.0739 29.913 27.0305 26.1855 23.5227 23.7294V23.7161ZM217.083 27.6565C214.647 27.6565 212.164 26.6848 210.833 25.5332L209.515 27.4502C211.365 29.0011 214.354 29.9463 217.076 29.9463C221.23 29.9463 224.697 27.9428 224.697 24.1221C224.697 20.7408 221.915 19.4229 218.667 19.0236L216.983 18.8172C214.108 18.4578 212.637 17.5725 212.637 15.8286C212.637 13.7586 214.64 12.5005 217.449 12.5005C219.665 12.5005 221.576 13.2128 223.133 14.2711L224.365 12.3142C222.554 11.0695 220.351 10.2175 217.462 10.2175C213.422 10.2175 210.134 12.2876 210.134 15.9884C210.134 19.2632 212.656 20.7275 215.818 21.1136L217.602 21.3332C220.591 21.706 222.195 22.5513 222.195 24.3351C222.195 26.4984 219.945 27.6632 217.083 27.6632V27.6565ZM187.596 37.7273C184.648 37.7273 182.251 40.1168 182.251 43.0721C182.251 46.0274 184.641 48.417 187.596 48.417C190.552 48.417 192.941 46.0274 192.941 43.0721C192.941 40.1168 190.552 37.7273 187.596 37.7273ZM187.596 47.139C185.353 47.139 183.529 45.3152 183.529 43.0721C183.529 40.829 185.353 39.0052 187.596 39.0052C189.839 39.0052 191.663 40.829 191.663 43.0721C191.663 45.3152 189.839 47.139 187.596 47.139ZM19.8752 23.8426V32.6287C19.8752 37.9403 22.6708 39.145 23.8955 39.4046C24.0353 39.4312 24.1817 39.4579 24.3215 39.4712C24.7342 38.6458 25.2467 37.674 25.4264 36.7355C25.2067 36.7821 24.814 36.842 24.5811 36.7954C23.2898 36.5491 22.5177 34.7653 22.5177 32.0363V23.0638C22.5177 23.0638 22.5044 23.0572 22.4977 23.0505C22.3513 19.9754 21.3595 17.5392 19.5291 15.7953C18.6971 15.0033 17.7985 14.4508 16.9531 14.0781V17.0866C18.4974 18.1516 19.8752 20.1351 19.8752 23.8426ZM13.2989 16.9735V32.0363C13.2989 32.1894 13.2989 32.3425 13.2989 32.4955C13.2989 32.6353 13.3056 32.7751 13.3122 32.9149C13.3122 32.9215 13.3122 32.9349 13.3122 32.9415C13.5319 37.7273 15.4422 40.2233 17.0596 41.488C17.0996 41.5213 17.1462 41.5479 17.1861 41.5812C17.1994 41.5945 17.2127 41.6011 17.226 41.6144C17.226 41.6144 17.226 41.6144 17.2327 41.6211C17.3259 41.6877 17.4191 41.7542 17.5123 41.8208C18.544 42.5197 19.9018 42.8525 21.1731 43.0588C22.2514 42.3732 22.7839 41.8407 23.4895 40.829C23.4828 40.829 23.4695 40.829 23.4628 40.829C23.363 40.8423 23.2565 40.849 23.1567 40.8556C23.1234 40.8556 23.0901 40.8556 23.0568 40.8623C22.9503 40.8689 22.8438 40.8756 22.7373 40.8756C22.7107 40.8756 22.6907 40.8756 22.6641 40.8756C22.5509 40.8756 22.4378 40.8756 22.3246 40.8756C22.3113 40.8756 22.3047 40.8756 22.2914 40.8756C21.912 40.8689 21.5459 40.8357 21.1864 40.7691C20.2213 40.6027 19.5291 40.017 18.7836 39.4712C17.0796 38.2132 16.0945 35.9434 15.9414 32.9082V32.835C15.9414 32.835 15.9414 32.8017 15.9414 32.7884C15.9414 32.6753 15.9348 32.5555 15.9281 32.4423C15.9281 32.429 15.9281 32.409 15.9281 32.3957C15.9281 32.2692 15.9281 32.1428 15.9281 32.0163V18.7906C15.9281 15.4825 15.582 13.4857 15.0894 12.1411C14.75 11.2825 14.324 10.557 13.8514 9.93794C13.8514 9.93129 13.8381 9.92463 13.8314 9.91797C12.7798 8.55347 11.4951 7.72145 10.3636 7.20893V10.1975C11.9078 11.2625 13.2856 13.2527 13.2856 16.9602L13.2989 16.9735ZM6.60953 9.14586L6.72269 13.5522V33.6204C6.72269 34.0198 6.736 34.4125 6.75597 34.7986C6.95565 38.3729 8.08719 41.1818 10.1306 43.1587C11.1024 43.984 12.2606 44.6363 14.5969 44.8293C17.2127 44.9758 18.9234 44.39 20.0616 43.7777C19.9151 43.7777 19.7687 43.7777 19.6223 43.7777C19.6023 43.7777 19.589 43.7777 19.569 43.7777C19.4891 43.7777 19.4026 43.7777 19.3227 43.7777C19.2961 43.7777 19.2628 43.7777 19.2362 43.7777C19.163 43.7777 19.0898 43.7777 19.0232 43.7777C18.9899 43.7777 18.95 43.7777 18.9167 43.7777C18.8501 43.7777 18.7836 43.7777 18.717 43.771C18.6771 43.771 18.6371 43.771 18.6039 43.771C18.5373 43.771 18.4774 43.7644 18.4108 43.7577C18.3709 43.7577 18.331 43.7577 18.291 43.751C18.2311 43.751 18.1646 43.7444 18.1047 43.7377C18.0647 43.7377 18.0181 43.7311 17.9782 43.7244C17.9183 43.7244 17.8584 43.7111 17.7918 43.7045C17.7519 43.7045 17.7053 43.6978 17.6654 43.6911C17.6054 43.6845 17.5455 43.6778 17.4856 43.6712C17.439 43.6712 17.3991 43.6579 17.3525 43.6512C17.2926 43.6446 17.2327 43.6379 17.1728 43.6246C17.1262 43.6179 17.0863 43.6113 17.0397 43.6046C16.9798 43.598 16.9199 43.5846 16.86 43.578C16.8134 43.5713 16.7734 43.5647 16.7268 43.5514C16.6669 43.5381 16.607 43.5314 16.5538 43.5181C16.5072 43.5114 16.4673 43.4981 16.4207 43.4915C16.3608 43.4781 16.3008 43.4648 16.2476 43.4515C16.201 43.4382 16.1611 43.4316 16.1145 43.4182C16.0546 43.4049 16.0013 43.3916 15.9414 43.3783C15.8948 43.365 15.8549 43.3583 15.8083 43.345C15.7484 43.3317 15.6951 43.3117 15.6352 43.2984C15.5886 43.2851 15.5487 43.2718 15.5021 43.2585C15.4422 43.2385 15.389 43.2252 15.3291 43.2052C15.2825 43.1919 15.2425 43.1786 15.1959 43.1653C15.136 43.1453 15.0828 43.1254 15.0295 43.1054C14.9829 43.0921 14.943 43.0721 14.8964 43.0588C14.8432 43.0388 14.7833 43.0189 14.73 42.9923C14.6901 42.9789 14.6435 42.959 14.6035 42.9457C14.5503 42.9257 14.4904 42.8991 14.4371 42.8791C14.3972 42.8591 14.3573 42.8458 14.3107 42.8259C14.2574 42.7992 14.1975 42.7726 14.1443 42.7526C14.1043 42.7327 14.0644 42.7127 14.0245 42.6927C13.9712 42.6661 13.9113 42.6395 13.8581 42.6062C13.8181 42.5862 13.7782 42.5663 13.7449 42.5463C13.6916 42.5197 13.6317 42.4864 13.5785 42.4531C13.5386 42.4331 13.5053 42.4132 13.4653 42.3932C13.4121 42.3599 13.3522 42.3266 13.2989 42.2934C13.2657 42.2734 13.2324 42.2534 13.1924 42.2268C13.1325 42.1935 13.0793 42.1536 13.0194 42.1136C12.9861 42.0937 12.9528 42.0737 12.9262 42.0537C12.8663 42.0138 12.8064 41.9672 12.7465 41.9273C12.7199 41.9073 12.6932 41.8873 12.6666 41.8674C12.6 41.8141 12.5335 41.7609 12.4603 41.7076C12.447 41.6943 12.427 41.681 12.4137 41.6677C12.3271 41.6011 12.2473 41.5279 12.1674 41.4547C10.3236 39.7773 9.38513 37.1482 9.38513 33.6404V10.8964C9.38513 8.88628 8.83933 6.66313 8.16041 5.22541C7.94741 4.81938 7.7211 4.43998 7.47483 4.10052C7.44155 4.06059 7.42158 4.0273 7.40161 3.99402C6.29669 2.4964 4.89891 1.61779 3.7008 1.09861V4.06059C5.03203 4.93254 6.26341 6.46345 6.6295 9.15918L6.60953 9.14586ZM208.863 37.907H205.308V39.1783H208.863V48.204H210.154V39.1783H213.708V37.907H208.863ZM178.604 16.2413C178.604 12.6536 176.154 10.4837 171.821 10.4837H164.533V29.6667H166.942V21.9922H171.821C176.148 21.9922 178.604 19.8289 178.604 16.2346V16.2413ZM171.761 19.7224H166.936V12.7601H171.761C174.597 12.7601 176.088 13.9116 176.088 16.2413C176.088 18.5709 174.597 19.7224 171.761 19.7224ZM165.631 37.7273C162.682 37.7273 160.286 40.1168 160.286 43.0721C160.286 46.0274 162.676 48.417 165.631 48.417C168.586 48.417 170.976 46.0274 170.976 43.0721C170.976 40.1168 168.586 37.7273 165.631 37.7273ZM165.631 47.139C163.388 47.139 161.564 45.3152 161.564 43.0721C161.564 40.829 163.388 39.0052 165.631 39.0052C167.874 39.0052 169.698 40.829 169.698 43.0721C169.698 45.3152 167.874 47.139 165.631 47.139ZM155.048 37.907H151.493V39.1783H155.048V48.204H156.339V39.1783H159.893V37.907H155.048ZM159.607 27.4036H148.398V21.1402H159.115V18.8638H148.398V12.7402H159.467V10.4771H145.989V29.66H159.607V27.397V27.4036ZM96.627 22.6112C96.627 25.9393 94.9296 27.6233 92.3537 27.6233C90.297 27.6233 88.8992 26.6781 88.0073 25.5266L86.3898 27.184C87.4415 28.4886 89.2253 29.9396 92.3604 29.9396C96.1544 29.9396 99.0298 27.4169 99.0298 22.8442V10.4837H96.6203V22.6112H96.627ZM204.05 9.93794L203.258 16.9934H205.188L206.666 9.93794H204.05ZM178.244 43.791C179.722 43.791 180.927 42.4731 180.927 40.849C180.927 39.2249 179.729 37.907 178.244 37.907H173.099V48.204H174.39V43.7843H175.642L179.183 48.204H180.747L177.206 43.7843H178.244V43.791ZM174.39 42.5729V39.1184H178.244C178.917 39.1184 179.762 39.9238 179.762 40.849C179.762 41.7742 179.016 42.553 178.231 42.5729H174.39ZM202.493 45.9609L196.256 37.907H195.071V48.204H196.362V40.1634L202.493 48.0842L202.586 48.204H203.784V37.907H202.493V45.9609ZM115.257 37.9203H113.92L109.779 48.1641H111.117L112.249 45.3685H117.174L118.306 48.1641H119.644L115.504 37.9203H115.257ZM112.728 44.177L114.712 39.2715L116.695 44.177H112.728ZM219.326 37.7273C216.377 37.7273 213.981 40.1168 213.981 43.0721C213.981 46.0274 216.371 48.417 219.326 48.417C222.281 48.417 224.671 46.0274 224.671 43.0721C224.671 40.1168 222.281 37.7273 219.326 37.7273ZM219.326 47.139C217.083 47.139 215.259 45.3152 215.259 43.0721C215.259 40.829 217.083 39.0052 219.326 39.0052C221.569 39.0052 223.393 40.829 223.393 43.0721C223.393 45.3152 221.569 47.139 219.326 47.139ZM144.132 42.4465H138.194V37.9203H136.857V48.1641H138.194V43.6379H144.132V48.1641H145.47V37.9203H144.132V42.4465ZM101.679 37.9203H101.206V48.1641H108.415V46.9793H102.544V43.6379H108.182V42.4531H102.544V39.1117H108.415V37.9269H101.686L101.679 37.9203ZM130.653 37.9203H127.179V39.1051H130.653V48.1574H131.991V39.1051H135.439V37.9203H130.66H130.653ZM122.406 37.9203H121.068V48.1641H128.277V46.9793H122.406V37.9269V37.9203ZM113.221 10.1975C107.463 10.1975 103.29 14.3376 103.29 20.0752C103.29 25.8128 107.47 29.9529 113.221 29.9529C118.972 29.9529 123.152 25.8128 123.152 20.0752C123.152 14.3376 118.972 10.1975 113.221 10.1975ZM113.221 27.6366C109.001 27.6366 105.806 24.5814 105.806 20.0752C105.806 15.569 109.001 12.5139 113.221 12.5139C117.441 12.5139 120.636 15.569 120.636 20.0752C120.636 24.5814 117.441 27.6366 113.221 27.6366Z" fill="white"/>
</svg>
